# xmcd
# Track frame offsets:
# 150
# 15827
# 33347
# 47675
# 67037
# 81162
# 93185
# 107652
# 124942
# 138455
# 160542
# 173650
# 186112
# 205365
#
# Disc length: 2896 seconds
# Revision: 0
# Processed by: cddbd v1.4PL0 Copyright (c) Steve Scherf et al.
# Submitted via: VisiTrax 2.9.5.181 - For more info visit www.synapsa.com
#
DISCID=af0b4e0e
DTITLE=Trickbag - Just Passing Through
DYEAR=1999
DGENRE=Blues
TTITLE0=All Time High
TTITLE1=Only Time Will Tell
TTITLE2=Little Lisa
TTITLE3=Can`t Get Over You
TTITLE4=Mad Duck
TTITLE5=One Of These Mornings
TTITLE6=Don`t Need That Rocking
TTITLE7=I`m Mellow
TTITLE8=Let Me Know
TTITLE9=Times Have Changed
TTITLE10=Banging On My Door
TTITLE11=I Wanna Know
TTITLE12=I Don`t Need No One
TTITLE13=Honey Honey
EXTD=
EXTT0=
EXTT1=
EXTT2=
EXTT3=
EXTT4=
EXTT5=
EXTT6=
EXTT7=
EXTT8=
EXTT9=
EXTT10=
EXTT11=
EXTT12=
EXTT13=
PLAYORDER=
